<svg xmlns="http://www.w3.org/2000/svg" xmlns:xlink="http://www.w3.org/1999/xlink" width="500" zoomAndPan="magnify" viewBox="0 0 375 374.999991" height="500" preserveAspectRatio="xMidYMid meet" version="1.0"><defs><clipPath id="9a8770b7a3"><path d="M 6 26.367188 L 369 26.367188 L 369 348.632812 L 6 348.632812 Z M 6 26.367188 " clip-rule="nonzero"/></clipPath><clipPath id="edcb61df6b"><path d="M 363.683594 206.949219 L 292.566406 329.183594 C 285.558594 341.226562 272.679688 348.632812 258.75 348.632812 L 116.25 348.632812 C 102.320312 348.632812 89.441406 341.226562 82.433594 329.183594 L 11.316406 206.949219 C 4.320312 194.925781 4.320312 180.074219 11.316406 168.050781 L 82.433594 45.816406 C 89.441406 33.773438 102.320312 26.367188 116.25 26.367188 L 258.75 26.367188 C 272.679688 26.367188 285.558594 33.773438 292.566406 45.816406 L 363.683594 168.050781 C 370.679688 180.074219 370.679688 194.925781 363.683594 206.949219 Z M 363.683594 206.949219 " clip-rule="nonzero"/></clipPath></defs><g clip-path="url(#9a8770b7a3)"><g clip-path="url(#edcb61df6b)"><path stroke-linecap="butt" transform="matrix(0.75, 0, 0, 0.75, 0.0000045, 26.367186)" fill="none" stroke-linejoin="miter" d="M 484.911453 240.776044 L 390.088536 403.755211 C 380.744786 419.812503 363.572911 429.687503 344.999995 429.687503 L 154.999994 429.687503 C 136.427078 429.687503 119.255203 419.812503 109.911453 403.755211 L 15.088536 240.776044 C 5.760411 224.744794 5.760411 204.942711 15.088536 188.911461 L 109.911453 25.932294 C 119.255203 9.875002 136.427078 0.00000238859 154.999994 0.00000238859 L 344.999995 0.00000238859 C 363.572911 0.00000238859 380.744786 9.875002 390.088536 25.932294 L 484.911453 188.911461 C 494.239578 204.942711 494.239578 224.744794 484.911453 240.776044 Z M 484.911453 240.776044 " stroke="#1a72e8" stroke-width="80" stroke-opacity="1" stroke-miterlimit="4"/></g></g></svg>